# xmcd
#
# Track frame offsets:
#	150
#	43975
#	90280
#	106729
#	126611
#	155660
#	201992
#	257697
#	271795
#	286539
#	312083
#	327077
#
# Disc length: 4485 seconds
#
# Revision: 0
# Processed by: cddbd v1.5.2PL0 Copyright (c) Steve Scherf et al.
# Submitted via: audiograbber 1.83.01
#
DISCID=a211830c
DTITLE=Henderson Bugs and Shuffle Kings, The - Vienna Calling [CD 2)
DYEAR=2009
DGENRE=
TTITLE0=Highway 61 Revisited
TTITLE1=Rock Me Baby
TTITLE2=Town Pump
TTITLE3=Hold The Line
TTITLE4=Ticket To Ride
TTITLE5=Texas Blues Jellyroll
TTITLE6=Tom's Trip To Texas
TTITLE7=Big D Shuffle
TTITLE8=The Big Roar
TTITLE9=It Ain't Nobody's Business
TTITLE10=Sweet Marie
TTITLE11=We' Re An American Band
EXTD=
EXTT0=
EXTT1=
EXTT2=
EXTT3=
EXTT4=
EXTT5=
EXTT6=
EXTT7=
EXTT8=
EXTT9=
EXTT10=
EXTT11=
PLAYORDER=
